<svg xmlns="http://www.w3.org/2000/svg" viewBox="0 0 720 520" font-family="-apple-system, system-ui, sans-serif">
  <defs>
    <style>
      .title{font-size:22px;font-weight:700;fill:#1f2937}
      .subtitle{font-size:13px;fill:#6b7280}
      .col{font-size:13px;font-weight:600;fill:#1f2937;text-anchor:middle}
      .row{font-size:13px;fill:#1f2937}
      .num{font-size:13px;fill:#1f2937;text-anchor:middle}
      .head{font-size:13px;font-weight:700;fill:#1f2937;text-anchor:middle}
      .stripe{fill:#f9fafb}
      .header-bg{fill:#fef3c7}
      .cell{fill:none;stroke:#e5e7eb;stroke-width:1}
      .footer{font-size:12px;fill:#6b7280;font-style:italic}
    </style>
  </defs>
  <rect width="720" height="520" fill="#ffffff"/>
  <text x="40" y="50" class="title">T-Shirt size guide</text>
  <text x="40" y="72" class="subtitle">All measurements in inches. Chest = full circumference. Length = shoulder seam to hem.</text>

  <!-- Table -->
  <g transform="translate(40,100)">
    <rect x="0" y="0" width="640" height="40" class="header-bg"/>
    <line x1="0" y1="40" x2="640" y2="40" stroke="#e5e7eb"/>
    <text x="80" y="26" class="head">Size</text>
    <text x="240" y="26" class="head">Chest (in)</text>
    <text x="400" y="26" class="head">Length (in)</text>
    <text x="560" y="26" class="head">Shoulder (in)</text>

    <g>
      <rect x="0" y="40" width="640" height="40" class="stripe"/>
      <text x="80" y="66" class="num" font-weight="700">S</text>
      <text x="240" y="66" class="num">36–38</text>
      <text x="400" y="66" class="num">27</text>
      <text x="560" y="66" class="num">17</text>
    </g>
    <g>
      <text x="80" y="106" class="num" font-weight="700">M</text>
      <text x="240" y="106" class="num">38–40</text>
      <text x="400" y="106" class="num">28</text>
      <text x="560" y="106" class="num">18</text>
    </g>
    <g>
      <rect x="0" y="120" width="640" height="40" class="stripe"/>
      <text x="80" y="146" class="num" font-weight="700">L</text>
      <text x="240" y="146" class="num">40–42</text>
      <text x="400" y="146" class="num">29</text>
      <text x="560" y="146" class="num">19</text>
    </g>
    <g>
      <text x="80" y="186" class="num" font-weight="700">XL</text>
      <text x="240" y="186" class="num">42–44</text>
      <text x="400" y="186" class="num">30</text>
      <text x="560" y="186" class="num">20</text>
    </g>
    <g>
      <rect x="0" y="200" width="640" height="40" class="stripe"/>
      <text x="80" y="226" class="num" font-weight="700">XXL</text>
      <text x="240" y="226" class="num">44–46</text>
      <text x="400" y="226" class="num">31</text>
      <text x="560" y="226" class="num">21</text>
    </g>
    <g>
      <text x="80" y="266" class="num" font-weight="700">XXXL</text>
      <text x="240" y="266" class="num">46–48</text>
      <text x="400" y="266" class="num">32</text>
      <text x="560" y="266" class="num">22</text>
    </g>

    <!-- Borders -->
    <rect x="0" y="0" width="640" height="280" class="cell"/>
    <line x1="160" y1="0" x2="160" y2="280" stroke="#e5e7eb"/>
    <line x1="320" y1="0" x2="320" y2="280" stroke="#e5e7eb"/>
    <line x1="480" y1="0" x2="480" y2="280" stroke="#e5e7eb"/>
    <line x1="0" y1="80" x2="640" y2="80" stroke="#e5e7eb"/>
    <line x1="0" y1="120" x2="640" y2="120" stroke="#e5e7eb"/>
    <line x1="0" y1="160" x2="640" y2="160" stroke="#e5e7eb"/>
    <line x1="0" y1="200" x2="640" y2="200" stroke="#e5e7eb"/>
    <line x1="0" y1="240" x2="640" y2="240" stroke="#e5e7eb"/>
  </g>

  <text x="40" y="430" class="footer">Tip: Lay a similar t-shirt flat and measure across the chest pit-to-pit, then double for full chest.</text>
  <text x="40" y="450" class="footer">If you're between two sizes, choose the larger for a relaxed fit, the smaller for a slimmer fit.</text>
  <text x="40" y="490" class="title">Unity Collection</text>
</svg>
